<svg xmlns="http://www.w3.org/2000/svg" width="1100" height="620" viewBox="0 0 1100 620"><rect width="1100" height="620" fill="#ffffff"/><rect x="0" y="0" width="1100" height="80" fill="#17365D"/><text x="40" y="38" font-family="Arial" font-size="28" font-weight="700" fill="#fff">PFAS Drinking Water Decision Intelligence</text><text x="40" y="62" font-family="Arial" font-size="14" fill="#fff">National screening → engineering priority → case studies → lifecycle economics → capital allocation</text><g font-family="Arial"><g><rect x="40" y="110" width="235" height="110" rx="8" fill="#D9EAF7"/><text x="58" y="142" font-size="15" fill="#17365D">Analytical results</text><text x="58" y="190" font-size="34" font-weight="700" fill="#111">1,992,002</text></g><g><rect x="295" y="110" width="235" height="110" rx="8" fill="#D9EAF7"/><text x="313" y="142" font-size="15" fill="#17365D">Water systems analyzed</text><text x="313" y="190" font-size="34" font-weight="700" fill="#111">10,313</text></g><g><rect x="550" y="110" width="235" height="110" rx="8" fill="#D9EAF7"/><text x="568" y="142" font-size="15" fill="#17365D">PFOA/PFOS screening triggers</text><text x="568" y="190" font-size="34" font-weight="700" fill="#111">1,127</text></g><g><rect x="805" y="110" width="255" height="110" rx="8" fill="#D9EAF7"/><text x="823" y="142" font-size="15" fill="#17365D">Tier 1 priorities</text><text x="823" y="190" font-size="34" font-weight="700" fill="#111">388</text></g><text x="40" y="270" font-size="20" font-weight="700" fill="#17365D">Priority distribution</text><rect x="40" y="290" width="500" height="245" rx="8" fill="#f7f9fb" stroke="#ccd7e0"/><text x="70" y="330" font-size="15">Tier 1 — highest</text><rect x="220" y="312" width="260" height="24" fill="#17365D"/><text x="490" y="330" font-size="14">388</text><text x="70" y="375" font-size="15">Tier 2 — high</text><rect x="220" y="357" width="286" height="24" fill="#3E6B8F"/><text x="516" y="375" font-size="14">426</text><text x="70" y="420" font-size="15">Tier 3 — review</text><rect x="220" y="402" width="194" height="24" fill="#7196B3"/><text x="424" y="420" font-size="14">289</text><text x="70" y="465" font-size="15">Tier 4 — watch</text><rect x="220" y="447" width="16" height="24" fill="#AAC2D3"/><text x="246" y="465" font-size="14">24</text><text x="590" y="270" font-size="20" font-weight="700" fill="#17365D">Balanced capital assistance</text><rect x="590" y="290" width="470" height="245" rx="8" fill="#f7f9fb" stroke="#ccd7e0"/><text x="620" y="330" font-size="14" font-weight="700">Budget</text><text x="760" y="330" font-size="14" font-weight="700">Systems</text><text x="875" y="330" font-size="14" font-weight="700">Tier 1</text><text x="965" y="330" font-size="14" font-weight="700">States</text><line x1="615" y1="342" x2="1035" y2="342" stroke="#aaa"/><text x="620" y="378" font-size="15">$100M</text><text x="770" y="378" font-size="15">32</text><text x="888" y="378" font-size="15">32</text><text x="980" y="378" font-size="15">13</text><text x="620" y="418" font-size="15">$250M</text><text x="770" y="418" font-size="15">81</text><text x="888" y="418" font-size="15">81</text><text x="980" y="418" font-size="15">24</text><text x="620" y="458" font-size="15">$500M</text><text x="770" y="458" font-size="15">162</text><text x="882" y="458" font-size="15">141</text><text x="980" y="458" font-size="15">31</text><text x="620" y="498" font-size="15">$1B</text><text x="770" y="498" font-size="15">317</text><text x="882" y="498" font-size="15">218</text><text x="980" y="498" font-size="15">36</text><text x="40" y="580" font-size="13" fill="#555">Screening/engineering-review tool — UCMR 5 results are not, by themselves, regulatory compliance determinations.</text></g></svg>